<mxfile host="Electron" agent="Mozilla/5.0 (Windows NT 10.0; Win64; x64) AppleWebKit/537.36 (KHTML, like Gecko) draw.io/27.0.9 Chrome/134.0.6998.205 Electron/35.4.0 Safari/537.36" version="27.0.9">
  <diagram name="Page-1" id="GeHCcGhmk-n85-NvrAPZ">
    <mxGraphModel dx="798" dy="1240" grid="1" gridSize="10" guides="1" tooltips="1" connect="1" arrows="1" fold="1" page="1" pageScale="1" pageWidth="1169" pageHeight="827" math="0" shadow="0">
      <root>
        <mxCell id="0" />
        <mxCell id="1" parent="0" />
        <mxCell id="HyxT9i0W7z48WeM-fbjf-1" value="&lt;font style=&quot;color: rgb(255, 0, 0);&quot;&gt;#7&lt;/font&gt;&lt;div&gt;&lt;font color=&quot;#ff0000&quot;&gt;&lt;br&gt;&lt;/font&gt;&lt;div&gt;&lt;font style=&quot;color: rgb(255, 0, 0);&quot;&gt;This flowchart for a program to ask the user to enter Number&lt;/font&gt;&lt;div&gt;&lt;font style=&quot;color: rgb(255, 0, 0);&quot;&gt;Than print &quot;Half of the &amp;lt;number&amp;gt;&quot; is &quot; &amp;lt;???&amp;gt;&lt;/font&gt;&lt;/div&gt;&lt;div&gt;&lt;br&gt;&lt;/div&gt;&lt;div&gt;&lt;font style=&quot;color: rgb(255, 0, 0);&quot;&gt;&lt;br&gt;&lt;/font&gt;&lt;/div&gt;&lt;div&gt;&lt;font style=&quot;color: rgb(255, 0, 0);&quot;&gt;&lt;br&gt;&lt;/font&gt;&lt;/div&gt;&lt;div&gt;&lt;font style=&quot;color: rgb(255, 0, 0);&quot;&gt;&amp;nbsp;&amp;nbsp;&lt;/font&gt;&lt;div&gt;&lt;br&gt;&lt;/div&gt;&lt;/div&gt;&lt;/div&gt;&lt;/div&gt;" style="text;html=1;align=left;verticalAlign=middle;resizable=0;points=[];autosize=1;strokeColor=none;fillColor=none;" parent="1" vertex="1">
          <mxGeometry x="215" width="340" height="140" as="geometry" />
        </mxCell>
        <mxCell id="HyxT9i0W7z48WeM-fbjf-2" value="End" style="ellipse;whiteSpace=wrap;html=1;fillColor=#FF0000;" parent="1" vertex="1">
          <mxGeometry x="600" y="511" width="120" height="80" as="geometry" />
        </mxCell>
        <mxCell id="HyxT9i0W7z48WeM-fbjf-7" value="" style="edgeStyle=orthogonalEdgeStyle;rounded=0;orthogonalLoop=1;jettySize=auto;html=1;" parent="1" source="HyxT9i0W7z48WeM-fbjf-3" target="HyxT9i0W7z48WeM-fbjf-5" edge="1">
          <mxGeometry relative="1" as="geometry" />
        </mxCell>
        <mxCell id="HyxT9i0W7z48WeM-fbjf-3" value="&lt;span style=&quot;color: rgb(18, 18, 18);&quot;&gt;Start&lt;/span&gt;" style="ellipse;whiteSpace=wrap;html=1;fillColor=#00FF00;" parent="1" vertex="1">
          <mxGeometry x="600" y="-60" width="120" height="80" as="geometry" />
        </mxCell>
        <mxCell id="HyxT9i0W7z48WeM-fbjf-9" value="" style="edgeStyle=orthogonalEdgeStyle;rounded=0;orthogonalLoop=1;jettySize=auto;html=1;" parent="1" source="HyxT9i0W7z48WeM-fbjf-4" target="HyxT9i0W7z48WeM-fbjf-2" edge="1">
          <mxGeometry relative="1" as="geometry" />
        </mxCell>
        <mxCell id="HyxT9i0W7z48WeM-fbjf-4" value="Print: halfNum" style="shape=parallelogram;perimeter=parallelogramPerimeter;whiteSpace=wrap;html=1;fixedSize=1;fillColor=#3399FF;" parent="1" vertex="1">
          <mxGeometry x="600" y="354" width="120" height="60" as="geometry" />
        </mxCell>
        <mxCell id="HyxT9i0W7z48WeM-fbjf-8" value="" style="edgeStyle=orthogonalEdgeStyle;rounded=0;orthogonalLoop=1;jettySize=auto;html=1;" parent="1" source="HyxT9i0W7z48WeM-fbjf-5" target="HyxT9i0W7z48WeM-fbjf-6" edge="1">
          <mxGeometry relative="1" as="geometry" />
        </mxCell>
        <mxCell id="HyxT9i0W7z48WeM-fbjf-5" value="Read: Nam&amp;nbsp;" style="shape=parallelogram;perimeter=parallelogramPerimeter;whiteSpace=wrap;html=1;fixedSize=1;fillColor=#B266FF;" parent="1" vertex="1">
          <mxGeometry x="600" y="100" width="120" height="60" as="geometry" />
        </mxCell>
        <mxCell id="HyxT9i0W7z48WeM-fbjf-10" value="" style="edgeStyle=orthogonalEdgeStyle;rounded=0;orthogonalLoop=1;jettySize=auto;html=1;" parent="1" source="HyxT9i0W7z48WeM-fbjf-6" target="HyxT9i0W7z48WeM-fbjf-4" edge="1">
          <mxGeometry relative="1" as="geometry" />
        </mxCell>
        <mxCell id="HyxT9i0W7z48WeM-fbjf-6" value="halfNum = Nam / 2" style="rounded=0;whiteSpace=wrap;html=1;fillColor=#FF8000;" parent="1" vertex="1">
          <mxGeometry x="600" y="220" width="120" height="60" as="geometry" />
        </mxCell>
      </root>
    </mxGraphModel>
  </diagram>
</mxfile>
